<svg width="9" height="11" viewBox="0 0 9 11" fill="none" xmlns="http://www.w3.org/2000/svg">
<path d="M4.50254 10.1489C5.66954 9.10421 6.56258 8.10215 7.18167 7.14275C7.80076 6.18334 8.1103 5.34304 8.1103 4.62185C8.1103 3.53439 7.76482 2.6404 7.07385 1.93989C6.38288 1.23937 5.52577 0.889115 4.50254 0.889115C3.47931 0.889115 2.62221 1.23937 1.93124 1.93989C1.24027 2.6404 0.894782 3.53439 0.894782 4.62185C0.894782 5.34304 1.20433 6.18334 1.82342 7.14275C2.44251 8.10215 3.33555 9.10421 4.50254 10.1489ZM4.50254 11C4.38632 11 4.2701 10.98 4.15387 10.9399C4.03755 10.8997 3.93237 10.8376 3.83832 10.7535C3.30304 10.2602 2.80211 9.75213 2.33553 9.22938C1.86905 8.70672 1.46356 8.18422 1.11907 7.66187C0.774483 7.13951 0.501823 6.62178 0.301094 6.10868C0.100365 5.59547 0 5.09986 0 4.62185C0 3.24527 0.445253 2.13082 1.33576 1.27849C2.22637 0.426164 3.28196 0 4.50254 0C5.72312 0 6.77872 0.426164 7.66932 1.27849C8.55983 2.13082 9.00508 3.24527 9.00508 4.62185C9.00508 5.09986 8.90472 5.59447 8.70399 6.10569C8.50326 6.61701 8.2316 7.13479 7.88899 7.65903C7.54629 8.18328 7.1417 8.70578 6.67522 9.22654C6.20874 9.74741 5.70781 10.2544 5.17243 10.7477C5.07978 10.8318 4.97444 10.8949 4.85643 10.9369C4.73852 10.979 4.62055 11 4.50254 11ZM4.50359 5.58657C4.80035 5.58657 5.05408 5.48089 5.26475 5.26952C5.47552 5.05815 5.5809 4.80408 5.5809 4.50731C5.5809 4.21054 5.47522 3.95677 5.26385 3.746C5.05248 3.53533 4.79837 3.43 4.5015 3.43C4.20473 3.43 3.95101 3.53568 3.74034 3.74705C3.52957 3.95842 3.42418 4.21253 3.42418 4.5094C3.42418 4.80617 3.52986 5.05989 3.74123 5.27056C3.9526 5.48124 4.20672 5.58657 4.50359 5.58657Z" fill="#1C1B1F"/>
</svg>
