<svg width="11" height="11" viewBox="0 0 11 11" fill="none" xmlns="http://www.w3.org/2000/svg">
<path d="M5.93421 5.32414V3.03947C5.93421 2.91645 5.89257 2.8133 5.8093 2.73003C5.72603 2.64685 5.62288 2.60526 5.49986 2.60526C5.37673 2.60526 5.27363 2.64685 5.19055 2.73003C5.10738 2.8133 5.06579 2.91645 5.06579 3.03947V5.45774C5.06579 5.52586 5.07843 5.59186 5.10371 5.65574C5.12889 5.71961 5.1686 5.77867 5.22283 5.83289L7.20572 7.81579C7.28581 7.89597 7.38655 7.93698 7.50793 7.93882C7.62932 7.94065 7.73194 7.89964 7.81579 7.81579C7.89964 7.73194 7.94157 7.63024 7.94157 7.51068C7.94157 7.39123 7.89964 7.28957 7.81579 7.20572L5.93421 5.32414ZM5.50101 11C4.74028 11 4.02523 10.8556 3.35587 10.5669C2.68651 10.2782 2.10428 9.88644 1.60918 9.39154C1.11409 8.89664 0.722092 8.31465 0.433197 7.64558C0.144399 6.97651 0 6.26165 0 5.50101C0 4.74028 0.144351 4.02523 0.433053 3.35587C0.721754 2.68651 1.11356 2.10428 1.60846 1.60918C2.10336 1.11409 2.68535 0.722092 3.35442 0.433197C4.02349 0.144399 4.73835 0 5.49899 0C6.25972 0 6.97477 0.144351 7.64413 0.433052C8.31349 0.721754 8.89572 1.11356 9.39082 1.60846C9.88591 2.10336 10.2779 2.68535 10.5668 3.35442C10.8556 4.02349 11 4.73835 11 5.49899C11 6.25972 10.8556 6.97477 10.5669 7.64413C10.2782 8.31349 9.88644 8.89572 9.39154 9.39082C8.89664 9.88591 8.31465 10.2779 7.64558 10.5668C6.97651 10.8556 6.26165 11 5.50101 11ZM5.5 10.1316C6.78333 10.1316 7.8761 9.68048 8.77829 8.77829C9.68048 7.8761 10.1316 6.78333 10.1316 5.5C10.1316 4.21667 9.68048 3.1239 8.77829 2.22171C7.8761 1.31952 6.78333 0.868421 5.5 0.868421C4.21667 0.868421 3.1239 1.31952 2.22171 2.22171C1.31952 3.1239 0.868421 4.21667 0.868421 5.5C0.868421 6.78333 1.31952 7.8761 2.22171 8.77829C3.1239 9.68048 4.21667 10.1316 5.5 10.1316Z" fill="#1C1B1F"/>
</svg>
