<?xml version="1.0" encoding="utf-8"?>
<!-- Generator: Adobe Illustrator 28.3.0, SVG Export Plug-In . SVG Version: 6.00 Build 0)  -->
<svg version="1.1" id="Layer_1" xmlns="http://www.w3.org/2000/svg" xmlns:xlink="http://www.w3.org/1999/xlink" x="0px" y="0px"
	 viewBox="0 0 182 182" style="enable-background:new 0 0 182 182;" xml:space="preserve">
<style type="text/css">
	.st0{fill:#373737;}
	.st1{fill:#FFFFFF;}
</style>
<circle class="st0" cx="91" cy="91" r="90.74"/>
<g id="XMLID_5_">
	<path id="XMLID_77_" class="st1" d="M46.21,85.87c1.54-1.36,2.29-3.55,2.29-6.6c0-3.32-0.8-6.45-2.34-9.36
		c-1.4-2.61-3.23-4.19-5.52-4.79h3.04c5.33,0,9.68,1.09,13,3.32c3.32,2.23,4.95,4.98,4.95,8.27c0,3.28-0.98,5.77-2.94,7.51
		c-1.97,1.74-4.59,2.98-7.81,3.7v0.26c1.31,0.04,2.81,0.38,4.44,1.02s3.23,1.58,4.77,2.76c1.54,1.2,2.85,2.68,3.89,4.45
		c1.03,1.78,1.54,3.85,1.54,6.19c0,4.22-1.82,7.77-5.47,10.6c-3.7,2.87-8.46,4.3-14.31,4.3h-1.4c5.38-0.9,8.04-4.6,8.04-11.09
		c0-4.49-0.89-8.49-2.67-12c-2.01-3.92-4.95-6.11-8.88-6.45C43.04,87.8,44.81,87.11,46.21,85.87z"/>
	<path id="XMLID_73_" class="st1" d="M65.53,117.49v-0.6c1.39,0,2.61-0.87,3.58-2.61c1.02-1.78,1.51-3.92,1.51-6.49V74.85
		c0-2.57-0.49-4.75-1.51-6.49c-0.98-1.78-2.19-2.64-3.58-2.64v-0.6l14.22-1.2h0.6v43.89c0,2.57,0.49,4.71,1.47,6.49
		c1.02,1.74,2.19,2.61,3.58,2.61v0.6C85.4,117.49,65.53,117.49,65.53,117.49z"/>
	<path id="XMLID_69_" class="st1" d="M91.22,116.63c-1.89-0.98-3.32-2.3-4.3-3.96c-0.98-1.66-1.47-3.51-1.47-5.51
		c0-2.72,0.6-4.95,1.78-6.72c1.17-1.78,2.76-3.06,4.75-3.92c2-0.83,4.3-1.24,6.83-1.24c2.49,0,4.56,0.3,6.19,0.87l0.45,0.19
		c-0.83-0.19-1.78-0.3-2.87-0.3c-4.34,0.75-6.6,4.26-6.79,10.53c0,2.68,0.68,4.91,2,6.68c1.32,1.78,2.91,3.09,4.75,4
		c0.34,0.11,0.68,0.19,1.02,0.19c0.34,0,0.56,0,0.72-0.04c-1.43,0.49-3.47,0.72-6.11,0.72C95.41,118.09,93.1,117.6,91.22,116.63z
		 M92.09,93.75l-7.73-7.13c2.23-2.45,4.6-4.22,7.21-5.4c2.08-0.94,4.45-1.47,7.13-1.66c-1.66,0.56-3.06,2.38-4.22,5.36
		c-1.17,2.61-1.97,5.55-2.3,8.83C92.16,93.75,92.09,93.75,92.09,93.75z"/>
	<path id="XMLID_31_" class="st1" d="M116.84,112.24c0,0.56,0.19,1.51,0.6,2.76c0.38,1.24,1.32,1.89,2.87,1.89v0.6h-14.87v-0.6
		c1.54,0,3.51-0.9,5.89-2.76c2.38-1.81,4.3-3.47,5.81-5.02C116.96,109.75,116.84,110.81,116.84,112.24z M142.5,114.21
		c1.85,1.78,3.36,2.68,4.52,2.68v0.6H124.5v-0.6c1.47,0,2.38-1.05,2.72-3.13c0.08-0.41,0.11-0.87,0.11-1.32
		c0-1.78-0.56-3.66-1.66-5.74l-9.1-15.85c-1.51-2.57-3.28-4.91-5.36-7.02c-2.08-2.12-3.7-3.17-4.87-3.17v-0.6h22.56v0.6
		c-2,0-2.98,1.39-2.98,4.15c0,1.85,0.6,3.85,1.81,6.04l9.7,16.9C138.92,110.29,140.61,112.43,142.5,114.21z M136.5,84.09
		c0-0.19-0.04-0.79-0.11-1.85c-0.11-1.05-0.9-1.58-2.45-1.58v-0.6h12.49v0.6c-1.47,0-3.36,1.05-5.66,3.13
		c-2.3,2.12-4.07,3.89-5.36,5.36C136.13,87.64,136.5,85.94,136.5,84.09z"/>
</g>
</svg>
