<?xml version="1.0" encoding="utf-8"?>
<!-- Generator: Adobe Illustrator 28.3.0, SVG Export Plug-In . SVG Version: 6.00 Build 0)  -->
<svg version="1.1" id="Layer_1" xmlns="http://www.w3.org/2000/svg" xmlns:xlink="http://www.w3.org/1999/xlink" x="0px" y="0px"
	 viewBox="0 0 182 182" style="enable-background:new 0 0 182 182;" xml:space="preserve">
<style type="text/css">
	.st0{fill:#373737;}
	.st1{fill:none;}
	.st2{fill:#FFFFFF;}
</style>
<circle class="st0" cx="91" cy="91" r="90.74"/>
<g>
	<g>
		<g>
			<path class="st0" d="M1263.49,728.7v-34.03h161.94v34.03h-60.39v163.68h-41.16V728.7H1263.49z"/>
			<path class="st0" d="M1429.33,792.45h-37.93c0.9-14.97,6.79-27.21,17.69-36.72c10.89-9.5,27.55-14.26,49.97-14.26
				c9.68,0,18.47,1.01,26.36,3.03s13.76,4.62,17.62,7.8c3.85,3.18,6.81,7.24,8.88,12.17c2.87,6.46,4.3,14.48,4.3,24.08l-0.13,74.91
				c0,8.7,0.76,14.44,2.29,17.22c1.52,2.87,3.72,4.75,6.59,5.65v6.05h-42.1c-2.33-5.56-3.54-11.25-3.63-17.08
				c-7.8,8.16-15.06,13.79-21.79,16.88c-6.72,3.09-14.75,4.64-24.08,4.64c-9.6,0-17.93-1.84-25.02-5.51
				c-7.08-3.68-12.37-9.01-15.87-16.01c-3.5-6.99-5.25-14.53-5.25-22.6c0-12.19,3.21-22.41,9.62-30.66s18.22-13.67,35.44-16.28
				l32.28-4.84c5.2-0.72,8.76-2.04,10.69-3.97c1.93-1.93,2.89-4.55,2.89-7.87c0-5.29-1.77-9.41-5.31-12.37s-9.48-4.44-17.82-4.44
				c-8.61,0-14.73,1.48-18.36,4.44C1433.03,779.67,1430.58,784.92,1429.33,792.45z M1478.15,820.83c-3.32,1.7-6.52,3.07-9.62,4.1
				c-3.09,1.03-7.24,2.08-12.44,3.16c-9.86,1.88-16.05,3.32-18.56,4.3c-4.13,1.7-7.22,4.03-9.28,6.99
				c-2.06,2.96-3.09,6.59-3.09,10.9c0,5.83,1.79,10.54,5.38,14.12c3.59,3.59,8.25,5.38,13.99,5.38c8.43,0,16.14-2.73,23.13-8.2
				c6.99-5.47,10.49-14.12,10.49-25.96V820.83z"/>
			<path class="st0" d="M1556.03,773.22h-20.44v-27.44h20.44v-39.54h38.2v39.54h23.67v27.44h-23.67v78.68c0,4.57,0.31,7.6,0.94,9.08
				c0.62,1.48,1.88,2.58,3.77,3.3c1.88,0.72,5.74,1.08,11.57,1.08c2.06,0,4.53-0.13,7.4-0.4v28.65c-7.98,0.54-14.12,0.81-18.43,0.81
				c-12.37,0-21.34-1.03-26.9-3.09s-9.71-5.18-12.44-9.35c-2.74-4.17-4.1-9.93-4.1-17.28L1556.03,773.22L1556.03,773.22z"/>
			<path class="st0" d="M1647.76,773.22h-20.44v-27.44h20.44v-39.54h38.2v39.54h23.67v27.44h-23.67v78.68c0,4.57,0.31,7.6,0.94,9.08
				c0.62,1.48,1.88,2.58,3.77,3.3c1.88,0.72,5.74,1.08,11.57,1.08c2.06,0,4.53-0.13,7.4-0.4v28.65c-7.98,0.54-14.12,0.81-18.43,0.81
				c-12.37,0-21.34-1.03-26.9-3.09s-9.71-5.18-12.44-9.35c-2.74-4.17-4.1-9.93-4.1-17.28L1647.76,773.22L1647.76,773.22z"/>
			<path class="st0" d="M1719.85,745.78h43.04l30.67,108l31.2-108h41.16l-52.99,146.6h-40.48L1719.85,745.78z"/>
			<path class="st0" d="M1911.24,792.45h-37.93c0.9-14.97,6.79-27.21,17.69-36.72c10.89-9.5,27.55-14.26,49.97-14.26
				c9.68,0,18.47,1.01,26.36,3.03s13.76,4.62,17.62,7.8c3.85,3.18,6.81,7.24,8.88,12.17c2.87,6.46,4.3,14.48,4.3,24.08l-0.13,74.91
				c0,8.7,0.76,14.44,2.29,17.22c1.52,2.87,3.72,4.75,6.59,5.65v6.05h-42.1c-2.33-5.56-3.54-11.25-3.63-17.08
				c-7.8,8.16-15.06,13.79-21.79,16.88c-6.72,3.09-14.75,4.64-24.08,4.64c-9.6,0-17.93-1.84-25.02-5.51
				c-7.08-3.68-12.37-9.01-15.87-16.01c-3.5-6.99-5.25-14.53-5.25-22.6c0-12.19,3.2-22.41,9.62-30.66
				c6.41-8.25,18.22-13.67,35.44-16.28l32.28-4.84c5.2-0.72,8.76-2.04,10.69-3.97c1.93-1.93,2.89-4.55,2.89-7.87
				c0-5.29-1.77-9.41-5.31-12.37s-9.48-4.44-17.82-4.44c-8.61,0-14.73,1.48-18.36,4.44
				C1914.94,779.67,1912.49,784.92,1911.24,792.45z M1960.06,820.83c-3.32,1.7-6.52,3.07-9.62,4.1c-3.09,1.03-7.24,2.08-12.44,3.16
				c-9.86,1.88-16.05,3.32-18.56,4.3c-4.13,1.7-7.22,4.03-9.28,6.99c-2.06,2.96-3.09,6.59-3.09,10.9c0,5.83,1.79,10.54,5.38,14.12
				c3.59,3.59,8.25,5.38,13.99,5.38c8.43,0,16.14-2.73,23.13-8.2c6.99-5.47,10.49-14.12,10.49-25.96V820.83z"/>
			<path class="st0" d="M2241.7,892.38h-38.2v-92.8c0-8.79-1.93-15.24-5.78-19.37c-3.86-4.12-9.24-6.19-16.14-6.19
				c-7.62,0-13.79,2.53-18.49,7.6c-4.71,5.07-7.06,12.71-7.06,22.93v87.83h-38.2v-87.83c0-7.62-0.65-13.43-1.95-17.42
				s-3.72-7.17-7.26-9.55s-7.91-3.57-13.11-3.57c-9.06,0-15.83,3.32-20.31,9.95c-3.05,4.49-4.57,11.34-4.57,20.58v87.83h-38.2
				v-146.6h36.99v21.65c4.39-8.07,9.37-14.03,14.93-17.89c7.8-5.38,17.03-8.07,27.71-8.07c6.54,0,12.4,1.01,17.55,3.03
				c5.15,2.02,9.48,4.77,12.98,8.27c2.69,2.6,5.83,6.86,9.41,12.78c4.75-7.8,10.58-13.76,17.48-17.89
				c6.9-4.12,15.15-6.19,24.75-6.19c9.15,0,16.86,1.66,23.13,4.98c6.27,3.32,11.23,7.38,14.86,12.17c3.63,4.8,6.12,10.15,7.47,16.07
				c1.34,5.92,2.02,14.21,2.02,24.88L2241.7,892.38L2241.7,892.38z"/>
		</g>
	</g>
	<path class="st1" d="M1794.37,447.8c3.43,0.31,7.49,4.83,7.49,4.83s-1.87,2.49-6.7,2.03c-4.83-0.47-9.98-7.02-9.98-7.02
		S1790.93,447.48,1794.37,447.8z"/>
	<path class="st1" d="M1922.71,525.56c0,0,0,0-1.63,8.33s6.32,13.31,6.32,13.31s2.49-4.4,2.2-10.05
		C1929.31,531.5,1922.71,525.56,1922.71,525.56z"/>
	<path class="st1" d="M1760.65,342.88c-19.52,0-38.13,3.91-55.09,10.97c0.47-0.14,0.9-0.26,1.25-0.35
		c57.32-11.34,109.34,0.22,155.69,34.54c2.81,2.08,5.44,4.07,7.97,6C1844.15,362.77,1804.73,342.88,1760.65,342.88z"/>
	<path class="st1" d="M1709.38,528.22c2.8-3.43,5.61-5.3,14.35-7.8c8.73-2.49,18.71-9.66,18.71-9.66l14.97,2.49l3.74,0.31
		c0,0,8.11,0.93,10.29,1.25c2.18,0.31,3.75,5.3,3.75,5.3s5.92-0.63,10.29-3.12c4.36-2.5,5.61-7.49,11.54-7.17
		c5.93,0.31,21.06,4.68,24.33,3.43c3.28-1.25,7.8-5.3,7.8-5.3s-0.47-1.09-2.03-2.03c-1.55-0.93-6.86-2.34-6.86-2.34
		s2.96-1.25,6.39-1.09s6.71,1.87,8.58,2.18s11.38-16.06,12.32-19.34c0.93-3.28-7.96-8.58-7.96-8.58l-25.89-24.02
		c0,0,1.25-6.86-6.55-19.34s-29.63-32.13-29.63-32.13s-0.94-23.08-12.16-24.33c-11.22-1.25-18.09,13.42-18.09,13.42
		s-0.31-0.63-6.23-0.63c-5.93,0-51.15-7.17-57.71-10.92c-3.59-2.05-8.2-3.03-13.27-3.7c-32.25,26.3-52.85,66.35-52.85,111.21
		c0,42.79,18.74,81.19,48.45,107.47c3.4-5.39,7.38-11.77,11.73-18.63C1686.92,560.11,1698.25,542.72,1709.38,528.22z
		 M1794.37,447.44c3.43,0.31,7.49,4.83,7.49,4.83s-1.87,2.49-6.7,2.03c-4.83-0.47-9.98-7.02-9.98-7.02
		S1790.93,447.12,1794.37,447.44z"/>
	<path class="st1" d="M1927.41,546.84c0,0,2.49-4.4,2.2-10.05c-0.01-0.24-0.05-0.47-0.08-0.71c-0.99,3.35-2.06,6.66-3.24,9.92
		C1926.95,546.55,1927.41,546.84,1927.41,546.84z"/>
	<path class="st0" d="M1760.65,310.32c-97.21,0-176.01,78.8-176.01,176.01c0,57.65,27.72,108.83,70.56,140.94l-0.42-1.07l6.42-24.5
		l0.41-1.55c1.23-1.9,2.59-4.03,4.05-6.34c-29.71-26.28-48.45-64.69-48.45-107.47c0-44.86,20.6-84.91,52.85-111.21
		c10.67-8.7,22.61-15.9,35.5-21.26c16.96-7.06,35.57-10.97,55.09-10.97c44.07,0,83.5,19.88,109.81,51.16c2,1.53,3.94,3.03,5.82,4.49
		c30.86,24.05,42.09,37.45,48.9,45.7c3.18,3.85,5.45,6.61,8.32,8.81C1917.95,371.76,1846.48,310.32,1760.65,310.32z"/>
	<g>
		<path class="st0" d="M1951.7,536.21c-3.82-4.97-5.36-13.02-5.36-13.02s11.48,13.78,26.42,17.99c14.93,4.21,54.75,2.3,54.75,2.3
			s-13.78,0-30.24-8.04c-2.22-1.09-4.23-2.19-6.06-3.29l0,0c-30.48-12.77-37.1-48.68-37.1-48.68s0.95,3.06,4.21,7.65
			c3.25,4.6,8.42,7.85,8.42,7.85s2.87-2.68,1.91-9.96c-0.95-7.27-13.97-22.97-17.8-23.74c-3.83-0.77-15.6-11.01-15.6-11.01
			c-0.61-0.39-1.18-0.8-1.74-1.23c-2.87-2.2-5.14-4.96-8.32-8.81c-6.81-8.25-18.05-21.65-48.9-45.7c-1.88-1.47-3.82-2.96-5.82-4.49
			c-2.52-1.93-5.15-3.92-7.97-6c-46.34-34.33-98.37-45.89-155.69-34.54c-0.35,0.09-0.78,0.21-1.25,0.35
			c-12.89,5.37-24.84,12.56-35.5,21.26c5.07,0.67,9.68,1.65,13.27,3.7c6.56,3.74,51.78,10.92,57.71,10.92
			c5.92,0,6.23,0.63,6.23,0.63s6.87-14.66,18.09-13.42c11.23,1.25,12.16,24.33,12.16,24.33s21.83,19.65,29.63,32.13
			s6.55,19.34,6.55,19.34l25.89,24.02c0,0,8.89,5.3,7.96,8.58c-0.94,3.27-10.45,19.65-12.32,19.34s-5.15-2.03-8.58-2.18
			c-3.43-0.16-6.39,1.09-6.39,1.09s5.3,1.4,6.86,2.34c1.56,0.93,2.03,2.03,2.03,2.03s-4.52,4.06-7.8,5.3
			c-3.27,1.25-18.4-3.12-24.33-3.43c-5.93-0.31-7.18,4.68-11.54,7.17c-4.37,2.49-10.29,3.12-10.29,3.12s-1.57-4.99-3.75-5.3
			s-10.29-1.25-10.29-1.25l-3.74-0.31l-14.97-2.49c0,0-9.98,7.17-18.71,9.66c-8.74,2.49-11.55,4.37-14.35,7.8
			c-11.12,14.5-22.45,31.89-31.99,46.95c-4.34,6.86-8.32,13.24-11.73,18.63c-1.46,2.31-2.82,4.44-4.05,6.34l-0.41,1.55l-6.42,24.5
			l0.42,1.07l13.61,34.61l-2.88,19.32l1.99,2.94c0.13,0.3,0.27,0.54,0.46,0.67v0.01c0.15,0.1,0.32,0.17,0.5,0.17
			c3.4,0,48.86,0,48.86,0l-3.19-15.26l-6.01-15.23l-9.79-24.79l2.83-5.6l2.91-5.74l11.17-22.05l8.91-17.61
			c0.86-0.42,1.87-0.52,3.11-0.33c5.63,0.88,11.28,1.65,16.94,2.31c2.31,0.27,4.68,0.21,7.02,0.16c5.3-0.13,10.59-0.42,15.7-2.03
			c1.09-0.34,2.14-0.46,3.17-0.34l13.83,7.22l-8.62,17.75l-0.38,0.77l-7.51,2.53l-2.49-1.49l-3.78-1.01l-9.27-2.47l-0.63,2.02
			l-7.77,24.99l-1.65,5.31l-1.84,5.9l12.73,4.62l10.54-5.91l31.71-5.83l0.81-1.46l4.02-7.19l18.48-33.02l8.42-15.04l-13.09-17.05
			l19.89-11.77l17.31,11.64l5.54,5.54l4.98,4.97c0,0,0.68,8.2,0.76,17.82c0,0.57,0.01,1.14,0.01,1.71c0,2.64,1.72,5.47,4.25,8.24
			c5.1,5.57,13.55,10.84,18.29,13.57c2.12,1.22,3.49,1.93,3.49,1.93l13.4-1.53c0,0,1.53-4.21,4.97-14.55
			c3.45-10.33,21.06-26.22,33.3-32.73c12.25-6.51,18.76-19.91,18.76-19.91S1955.53,541.19,1951.7,536.21z M1927.41,546.84
			c0,0-0.46-0.29-1.13-0.84c-2.13-1.74-6.43-6.13-5.19-12.47c1.63-8.33,1.63-8.33,1.63-8.33s6.05,5.45,6.81,10.87
			c0.03,0.24,0.07,0.47,0.08,0.71C1929.89,542.44,1927.41,546.84,1927.41,546.84z"/>
		<path class="st0" d="M1964.16,547.7c10.06,15.18,44.58,14.78,56.85,12.25c-10.63-1.29-21.12-2.8-29.93-9.26
			C1981.63,551.79,1972.96,550.46,1964.16,547.7z"/>
	</g>
	<path class="st0" d="M1795.15,454.3c4.84,0.47,6.7-2.03,6.7-2.03s-4.05-4.52-7.49-4.83c-3.43-0.31-9.2-0.16-9.2-0.16
		S1790.31,453.83,1795.15,454.3z"/>
</g>
<g>
	<g>
		<g>
			<path class="st2" d="M36.38,101.63v-3.8h18.08v3.8h-6.74v18.28h-4.6v-18.28H36.38z"/>
			<path class="st2" d="M54.89,108.75h-4.24c0.1-1.67,0.76-3.03,1.98-4.1c1.22-1.06,3.07-1.59,5.58-1.59c1.08,0,2.06,0.11,2.94,0.34
				c0.88,0.22,1.54,0.51,1.97,0.87c0.43,0.35,0.76,0.8,0.99,1.36c0.32,0.72,0.48,1.62,0.48,2.69l-0.02,8.36
				c0,0.97,0.08,1.61,0.25,1.92c0.17,0.32,0.41,0.53,0.74,0.63v0.67h-4.7c-0.26-0.62-0.4-1.26-0.41-1.91
				c-0.87,0.91-1.68,1.54-2.43,1.89c-0.75,0.34-1.65,0.52-2.69,0.52c-1.07,0-2-0.21-2.79-0.61c-0.79-0.41-1.38-1-1.77-1.79
				s-0.58-1.62-0.58-2.52c0-1.36,0.36-2.51,1.07-3.43c0.71-0.92,2.04-1.53,3.95-1.82l3.6-0.54c0.58-0.08,0.98-0.23,1.2-0.44
				c0.21-0.21,0.32-0.51,0.32-0.88c0-0.59-0.2-1.05-0.59-1.38c-0.4-0.33-1.06-0.5-1.99-0.5c-0.96,0-1.65,0.17-2.05,0.5
				C55.31,107.33,55.04,107.91,54.89,108.75z M60.35,111.92c-0.37,0.19-0.73,0.34-1.07,0.46c-0.34,0.11-0.81,0.23-1.39,0.35
				c-1.1,0.21-1.79,0.37-2.07,0.48c-0.46,0.19-0.8,0.45-1.03,0.78c-0.23,0.33-0.34,0.74-0.34,1.22c0,0.65,0.2,1.18,0.6,1.58
				c0.4,0.4,0.92,0.6,1.56,0.6c0.94,0,1.8-0.31,2.58-0.92c0.78-0.61,1.17-1.58,1.17-2.9L60.35,111.92L60.35,111.92z"/>
			<path class="st2" d="M69.04,106.61h-2.28v-3.07h2.28v-4.41h4.27v4.41h2.64v3.07h-2.64v8.78c0,0.51,0.04,0.85,0.11,1.01
				c0.07,0.17,0.21,0.29,0.42,0.37c0.21,0.08,0.64,0.12,1.3,0.12c0.23,0,0.51-0.02,0.83-0.05v3.2c-0.89,0.06-1.58,0.09-2.05,0.09
				c-1.38,0-2.38-0.11-3-0.34c-0.62-0.23-1.08-0.57-1.39-1.04c-0.31-0.47-0.46-1.11-0.46-1.93v-10.21H69.04z"/>
			<path class="st2" d="M79.29,106.61H77v-3.07h2.28v-4.41h4.27v4.41h2.64v3.07h-2.64v8.78c0,0.51,0.04,0.85,0.11,1.01
				c0.07,0.17,0.21,0.29,0.42,0.37c0.21,0.08,0.64,0.12,1.3,0.12c0.23,0,0.51-0.02,0.83-0.05v3.2c-0.89,0.06-1.58,0.09-2.05,0.09
				c-1.38,0-2.38-0.11-3-0.34c-0.62-0.23-1.08-0.57-1.39-1.04c-0.31-0.47-0.46-1.11-0.46-1.93v-10.21H79.29z"/>
			<path class="st2" d="M87.33,103.54h4.81l3.43,12.06l3.49-12.06h4.6l-5.92,16.37h-4.52L87.33,103.54z"/>
			<path class="st2" d="M108.7,108.75h-4.24c0.1-1.67,0.76-3.03,1.98-4.1c1.22-1.06,3.07-1.59,5.58-1.59c1.08,0,2.06,0.11,2.94,0.34
				c0.88,0.22,1.54,0.51,1.97,0.87c0.43,0.35,0.76,0.8,0.99,1.36c0.32,0.72,0.48,1.62,0.48,2.69l-0.02,8.36
				c0,0.97,0.08,1.61,0.25,1.92c0.17,0.32,0.41,0.53,0.74,0.63v0.67h-4.7c-0.26-0.62-0.4-1.26-0.41-1.91
				c-0.87,0.91-1.68,1.54-2.43,1.89c-0.75,0.34-1.65,0.52-2.69,0.52c-1.07,0-2-0.21-2.79-0.61c-0.79-0.41-1.38-1-1.77-1.79
				s-0.58-1.62-0.58-2.52c0-1.36,0.36-2.51,1.07-3.43c0.71-0.92,2.04-1.53,3.95-1.82l3.6-0.54c0.58-0.08,0.98-0.23,1.2-0.44
				s0.32-0.51,0.32-0.88c0-0.59-0.2-1.05-0.59-1.38c-0.4-0.33-1.06-0.5-1.99-0.5c-0.96,0-1.65,0.17-2.05,0.5
				C109.11,107.33,108.84,107.91,108.7,108.75z M114.15,111.92c-0.37,0.19-0.73,0.34-1.07,0.46c-0.34,0.11-0.81,0.23-1.39,0.35
				c-1.1,0.21-1.79,0.37-2.07,0.48c-0.46,0.19-0.8,0.45-1.03,0.78c-0.23,0.33-0.34,0.74-0.34,1.22c0,0.65,0.2,1.18,0.6,1.58
				c0.4,0.4,0.92,0.6,1.56,0.6c0.94,0,1.8-0.31,2.58-0.92c0.78-0.61,1.17-1.58,1.17-2.9L114.15,111.92L114.15,111.92z"/>
			<path class="st2" d="M145.6,119.91h-4.26v-10.36c0-0.98-0.21-1.7-0.64-2.16c-0.43-0.46-1.03-0.69-1.8-0.69
				c-0.85,0-1.54,0.28-2.06,0.85c-0.53,0.57-0.79,1.42-0.79,2.56v9.81h-4.26v-9.81c0-0.85-0.08-1.5-0.21-1.95
				c-0.15-0.44-0.41-0.8-0.81-1.07c-0.4-0.27-0.88-0.4-1.46-0.4c-1.01,0-1.77,0.37-2.27,1.11c-0.34,0.5-0.51,1.26-0.51,2.3v9.81
				h-4.26v-16.37h4.13v2.41c0.49-0.9,1.04-1.56,1.66-2c0.87-0.6,1.9-0.9,3.1-0.9c0.73,0,1.39,0.11,1.96,0.34
				c0.57,0.22,1.06,0.54,1.45,0.93c0.3,0.29,0.65,0.77,1.05,1.43c0.53-0.87,1.18-1.54,1.95-2c0.77-0.46,1.69-0.69,2.77-0.69
				c1.02,0,1.89,0.18,2.58,0.55c0.7,0.37,1.26,0.82,1.66,1.36s0.68,1.13,0.84,1.79c0.15,0.66,0.22,1.59,0.22,2.77v10.38H145.6z"/>
		</g>
	</g>
	<path class="st1" d="M95.65,70.27c0.38,0.04,0.84,0.54,0.84,0.54s-0.21,0.28-0.75,0.23c-0.54-0.05-1.11-0.78-1.11-0.78
		S95.26,70.23,95.65,70.27z"/>
	<path class="st1" d="M109.98,78.95c0,0,0,0-0.18,0.93c-0.18,0.93,0.71,1.49,0.71,1.49s0.28-0.49,0.25-1.12
		C110.71,79.61,109.98,78.95,109.98,78.95z"/>
	<path class="st1" d="M91.89,58.55c-2.18,0-4.25,0.44-6.15,1.23c0.05-0.02,0.1-0.03,0.14-0.04c6.4-1.26,12.21,0.02,17.38,3.85
		c0.31,0.23,0.61,0.45,0.89,0.67C101.21,60.78,96.81,58.55,91.89,58.55z"/>
	<path class="st1" d="M86.16,79.25c0.31-0.38,0.63-0.59,1.6-0.87c0.97-0.28,2.09-1.08,2.09-1.08l1.67,0.28l0.42,0.04
		c0,0,0.9,0.11,1.15,0.14c0.25,0.04,0.42,0.59,0.42,0.59s0.66-0.07,1.15-0.34s0.63-0.84,1.29-0.8c0.66,0.04,2.35,0.52,2.71,0.38
		c0.37-0.14,0.87-0.59,0.87-0.59s-0.05-0.12-0.23-0.23s-0.77-0.26-0.77-0.26s0.33-0.14,0.71-0.12s0.75,0.21,0.96,0.25
		s1.27-1.79,1.37-2.16c0.11-0.37-0.89-0.96-0.89-0.96l-2.89-2.68c0,0,0.14-0.77-0.73-2.16c-0.87-1.39-3.31-3.59-3.31-3.59
		s-0.11-2.58-1.36-2.71c-1.26-0.14-2.02,1.49-2.02,1.49s-0.04-0.07-0.7-0.07s-5.71-0.8-6.45-1.22c-0.4-0.23-0.91-0.34-1.48-0.41
		c-3.6,2.94-5.9,7.41-5.9,12.42c0,4.77,2.09,9.07,5.41,12c0.38-0.6,0.83-1.31,1.31-2.08C83.65,82.81,84.92,80.87,86.16,79.25z
		 M95.65,70.23c0.38,0.04,0.84,0.54,0.84,0.54s-0.21,0.28-0.75,0.23c-0.54-0.05-1.11-0.78-1.11-0.78S95.26,70.19,95.65,70.23z"/>
	<path class="st1" d="M110.51,81.33c0,0,0.28-0.49,0.25-1.12c0-0.02-0.01-0.05-0.01-0.08c-0.11,0.38-0.23,0.74-0.36,1.11
		C110.45,81.29,110.51,81.33,110.51,81.33z"/>
	<path class="st2" d="M91.89,54.92c-10.85,0-19.65,8.8-19.65,19.65c0,6.44,3.1,12.15,7.88,15.73l-0.05-0.12l0.72-2.74l0.05-0.18
		c0.14-0.21,0.29-0.45,0.45-0.71c-3.32-2.94-5.41-7.22-5.41-12c0-5.01,2.3-9.48,5.9-12.42c1.19-0.97,2.52-1.78,3.96-2.38
		c1.89-0.79,3.97-1.23,6.15-1.23c4.92,0,9.32,2.22,12.26,5.71c0.22,0.17,0.44,0.34,0.65,0.5c3.45,2.68,4.7,4.18,5.46,5.1
		c0.35,0.43,0.61,0.74,0.93,0.98C109.45,61.78,101.47,54.92,91.89,54.92z"/>
	<g>
		<path class="st2" d="M113.22,80.14c-0.43-0.55-0.6-1.46-0.6-1.46s1.28,1.54,2.95,2.01c1.67,0.47,6.12,0.25,6.12,0.25
			s-1.54,0-3.38-0.9c-0.25-0.12-0.48-0.25-0.67-0.37l0,0c-3.4-1.43-4.15-5.43-4.15-5.43s0.11,0.34,0.47,0.85
			c0.36,0.51,0.94,0.87,0.94,0.87s0.32-0.3,0.21-1.11s-1.56-2.57-1.98-2.65c-0.43-0.08-1.74-1.23-1.74-1.23
			c-0.07-0.05-0.13-0.09-0.19-0.14c-0.32-0.25-0.57-0.55-0.93-0.98c-0.76-0.92-2.02-2.41-5.46-5.1c-0.21-0.16-0.43-0.33-0.65-0.5
			c-0.28-0.21-0.57-0.44-0.89-0.67c-5.17-3.83-10.98-5.13-17.38-3.85c-0.04,0.01-0.08,0.02-0.14,0.04c-1.44,0.6-2.77,1.4-3.96,2.38
			c0.57,0.08,1.08,0.18,1.48,0.41c0.74,0.42,5.78,1.22,6.45,1.22c0.66,0,0.7,0.07,0.7,0.07s0.77-1.64,2.02-1.49
			c1.26,0.14,1.36,2.71,1.36,2.71s2.44,2.19,3.31,3.59c0.87,1.39,0.73,2.16,0.73,2.16l2.89,2.68c0,0,1,0.59,0.89,0.96
			s-1.16,2.19-1.37,2.16c-0.21-0.04-0.57-0.23-0.96-0.25c-0.38-0.02-0.71,0.12-0.71,0.12s0.59,0.15,0.77,0.26s0.23,0.23,0.23,0.23
			s-0.51,0.45-0.87,0.59s-2.05-0.34-2.71-0.38s-0.8,0.52-1.29,0.8c-0.49,0.28-1.15,0.34-1.15,0.34s-0.18-0.56-0.42-0.59
			c-0.25-0.04-1.15-0.14-1.15-0.14l-0.42-0.04l-1.67-0.28c0,0-1.11,0.8-2.09,1.08c-0.97,0.28-1.29,0.49-1.6,0.87
			c-1.24,1.62-2.51,3.56-3.57,5.24c-0.48,0.77-0.93,1.48-1.31,2.08c-0.16,0.26-0.31,0.5-0.45,0.71l-0.05,0.18l-0.72,2.74l0.05,0.12
			l1.52,3.86l-0.32,2.15l0.22,0.33c0.02,0.03,0.03,0.06,0.05,0.08l0,0c0.02,0.02,0.04,0.02,0.05,0.02c0.38,0,5.46,0,5.46,0
			l-0.36-1.7l-0.67-1.7l-1.1-2.77l0.31-0.63l0.32-0.64l1.25-2.46l1-1.96c0.1-0.05,0.21-0.06,0.34-0.04c0.63,0.1,1.26,0.18,1.89,0.26
			c0.26,0.03,0.52,0.02,0.78,0.02c0.59-0.02,1.18-0.05,1.75-0.23c0.12-0.04,0.24-0.05,0.35-0.04l1.54,0.8l-0.97,1.98l-0.04,0.08
			l-0.84,0.28l-0.28-0.17l-0.42-0.11l-1.03-0.28l-0.07,0.23l-0.87,2.79l-0.18,0.59l-0.21,0.66l1.42,0.51l1.18-0.66l3.54-0.65
			l0.09-0.16l0.44-0.8l2.06-3.69l0.94-1.68l-1.46-1.9l2.22-1.31l1.93,1.3l0.62,0.62l0.56,0.55c0,0,0.08,0.91,0.08,1.99
			c0,0.06,0,0.13,0,0.19c0,0.29,0.19,0.61,0.48,0.92c0.57,0.62,1.51,1.21,2.05,1.52c0.24,0.14,0.39,0.21,0.39,0.21l1.49-0.17
			c0,0,0.17-0.47,0.55-1.62s2.35-2.93,3.72-3.66s2.09-2.22,2.09-2.22S113.64,80.69,113.22,80.14z M110.51,81.33
			c0,0-0.05-0.03-0.12-0.09c-0.24-0.19-0.72-0.68-0.58-1.39c0.18-0.93,0.18-0.93,0.18-0.93s0.67,0.61,0.76,1.21
			c0,0.02,0.01,0.05,0.01,0.08C110.78,80.83,110.51,81.33,110.51,81.33z"/>
		<path class="st2" d="M114.61,81.42c1.13,1.69,4.98,1.65,6.35,1.37c-1.19-0.15-2.36-0.31-3.34-1.03
			C116.56,81.88,115.59,81.73,114.61,81.42z"/>
	</g>
	<path class="st2" d="M95.74,70.99c0.54,0.05,0.75-0.23,0.75-0.23s-0.45-0.51-0.84-0.54c-0.38-0.04-1.03-0.02-1.03-0.02
		S95.2,70.95,95.74,70.99z"/>
</g>
</svg>
