<svg width="191" height="21" viewBox="0 0 191 21" fill="none" xmlns="http://www.w3.org/2000/svg">
<path fill-rule="evenodd" clip-rule="evenodd" d="M190.343 1.37891C174.835 1.37891 159.304 2.30079 143.868 3.8251C142.979 3.91289 142.065 4.00084 141.131 4.09081C134.682 4.71153 127.233 5.42849 119.981 6.85472C118.351 7.1754 116.732 7.53154 115.14 7.92981C116.356 10.9932 114.828 13.9878 112.884 16.3201C111.551 17.9199 109.282 19.0852 106.855 19.8388C104.414 20.5964 101.739 20.9612 99.5158 20.9073C98.4053 20.8804 97.3881 20.7486 96.5617 20.4976C95.7513 20.2514 95.0424 19.8655 94.6632 19.2679C94.2539 18.6229 94.306 17.8643 94.742 17.0879C95.1666 16.3318 95.9777 15.5049 97.2026 14.5981C101.776 11.2126 107.539 8.90759 113.679 7.27383C112.894 6.06227 111.677 5.12523 110.166 4.40188C108.492 3.60057 106.487 3.07659 104.392 2.73272C100.953 2.16833 97.3445 2.09906 94.6516 2.04736C94.0576 2.03595 93.5081 2.0254 93.0148 2.01058C69.5392 1.30531 39.0825 5.19054 21.6324 9.98215C21.0027 10.1551 20.366 10.3274 19.7258 10.5006C16.4187 11.3956 13.0161 12.3164 9.97853 13.4831C6.3436 14.8792 3.33077 16.5929 1.653 18.9417C1.49249 19.1665 1.18022 19.2185 0.955513 19.058C0.730807 18.8975 0.678761 18.5852 0.839266 18.3605C2.69533 15.762 5.94409 13.9615 9.61997 12.5496C12.71 11.3627 16.172 10.4261 19.4782 9.53155C20.1151 9.35925 20.7461 9.18851 21.3676 9.01785C38.9176 4.1988 69.474 0.302896 93.0448 1.01103C93.5223 1.02538 94.0597 1.03562 94.6448 1.04676C97.3355 1.09803 101.035 1.16851 104.554 1.74592C106.699 2.09798 108.806 2.64219 110.598 3.49988C112.323 4.32553 113.784 5.45562 114.692 7.01133C116.371 6.58684 118.076 6.21031 119.788 5.87351C127.092 4.43703 134.594 3.71517 141.039 3.09495C141.973 3.0051 142.884 2.91739 143.77 2.82994C159.232 1.3031 174.796 0.378906 190.343 0.378906C190.619 0.378906 190.843 0.602764 190.843 0.878906C190.843 1.15505 190.619 1.37891 190.343 1.37891ZM114.161 8.1808C108.011 9.79839 102.293 12.0743 97.7975 15.4019C96.6167 16.276 95.9369 17.0023 95.6139 17.5776C95.3022 18.1326 95.3499 18.4836 95.5075 18.7321C95.6953 19.0281 96.1248 19.3197 96.8524 19.5407C97.5641 19.7569 98.4847 19.8821 99.5401 19.9076C101.649 19.9588 104.217 19.6107 106.558 18.8837C108.913 18.1527 110.964 17.0618 112.116 15.6799C114.032 13.3808 115.248 10.7581 114.161 8.1808Z" fill="#FF629A"/>
</svg>
