<svg width="43" height="41" viewBox="0 0 43 41" fill="none" xmlns="http://www.w3.org/2000/svg">
<path d="M18.5915 2.51113C19.3546 -0.508919 23.6455 -0.508917 24.4087 2.51113L25.6757 7.5252C26.1337 9.3379 28.1203 10.2946 29.8231 9.52249L34.5332 7.38685C37.3702 6.10053 40.0455 9.45528 38.1602 11.9349L35.03 16.0517C33.8983 17.54 34.389 19.6896 36.0543 20.5396L40.6607 22.8905C43.4352 24.3066 42.4804 28.4899 39.3663 28.5618L34.196 28.6813C32.3268 28.7245 30.9521 30.4484 31.3259 32.2803L32.3599 37.3476C32.9827 40.3997 29.1167 42.2614 27.1188 39.8716L23.8017 35.9038C22.6026 34.4693 20.3976 34.4693 19.1984 35.9038L15.8814 39.8716C13.8835 42.2614 10.0175 40.3997 10.6403 37.3476L11.6743 32.2803C12.0481 30.4484 10.6734 28.7245 8.8042 28.6813L3.63391 28.5618C0.519769 28.4899 -0.435042 24.3066 2.33947 22.8905L6.9459 20.5396C8.61122 19.6896 9.10186 17.54 7.97022 16.0517L4.84003 11.9349C2.95467 9.45528 5.62999 6.10053 8.46697 7.38685L13.1771 9.52249C14.8799 10.2946 16.8665 9.3379 17.3245 7.5252L18.5915 2.51113Z" fill="#8280E1"/>
</svg>
