<svg width="45" height="29" viewBox="0 0 45 29" fill="none" xmlns="http://www.w3.org/2000/svg">
<path d="M20.2095 10.2791C19.9048 10.2791 19.648 10.1728 19.4389 9.96017C19.2298 9.74741 19.1252 9.48698 19.1252 9.17888C19.1252 8.87078 19.2304 8.61106 19.4408 8.3997C19.6512 8.1882 19.9088 8.08245 20.2135 8.08245C20.5181 8.08245 20.775 8.18883 20.984 8.4016C21.193 8.61437 21.2976 8.8748 21.2976 9.18289C21.2976 9.49099 21.1924 9.75072 20.9821 9.96207C20.7717 10.1734 20.5142 10.2791 20.2095 10.2791ZM25.348 10.2791C25.0433 10.2791 24.7864 10.1728 24.5774 9.96017C24.3682 9.74741 24.2637 9.48698 24.2637 9.17888C24.2637 8.87078 24.3689 8.61106 24.5793 8.3997C24.7897 8.1882 25.0472 8.08245 25.3519 8.08245C25.6566 8.08245 25.9135 8.18883 26.1225 8.4016C26.3315 8.61437 26.436 8.8748 26.436 9.18289C26.436 9.49099 26.3309 9.75072 26.1206 9.96207C25.9102 10.1734 25.6526 10.2791 25.348 10.2791ZM22.7737 15.278C24.6965 15.278 26.3261 14.6017 27.6624 13.2493C28.9986 11.8968 29.6668 10.2469 29.6668 8.29979C29.6668 7.951 29.6412 7.6082 29.5901 7.27137C29.5391 6.93441 29.4672 6.61808 29.3743 6.32237C29.0912 6.39278 28.7976 6.44326 28.4935 6.47382C28.1892 6.50423 27.8647 6.51944 27.5199 6.51944C26.2074 6.51944 24.967 6.2431 23.7987 5.69041C22.6303 5.13773 21.6342 4.35333 20.8102 3.33724C20.3483 4.4519 19.6909 5.42463 18.838 6.25542C17.9851 7.08621 16.9993 7.72253 15.8806 8.1644V8.30402C15.8806 10.2509 16.5488 11.8999 17.8851 13.2512C19.2213 14.6024 20.8509 15.278 22.7737 15.278ZM22.7745 16.6156C21.6381 16.6156 20.5697 16.3973 19.5695 15.9607C18.5692 15.5241 17.6991 14.9316 16.9591 14.183C16.2192 13.4345 15.634 12.5553 15.2035 11.5456C14.773 10.5358 14.5578 9.45684 14.5578 8.30866C14.5578 7.1595 14.7737 6.07919 15.2055 5.06774C15.6372 4.05629 16.2232 3.17643 16.9635 2.42816C17.7038 1.68002 18.5732 1.08826 19.5718 0.652874C20.5704 0.217625 21.6374 0 22.7729 0C23.9093 0 24.9777 0.218329 25.9779 0.654986C26.9782 1.0915 27.8483 1.68404 28.5883 2.43259C29.3282 3.18115 29.9134 4.06031 30.344 5.07007C30.7744 6.07983 30.9896 7.15879 30.9896 8.30697C30.9896 9.45614 30.7737 10.5364 30.3419 11.5479C29.9102 12.5593 29.3242 13.4392 28.5839 14.1875C27.8437 14.9356 26.9742 15.5274 25.9756 15.9628C24.9771 16.398 23.91 16.6156 22.7745 16.6156Z" fill="#373737"/>
<path d="M0.617188 20.2724H3.02296C4.55631 20.2724 5.32298 20.8219 5.32298 21.9209C5.32298 22.212 5.25248 22.4853 5.11149 22.7407C4.97636 22.9962 4.80893 23.1833 4.60918 23.3021C5.24955 23.5932 5.56973 24.0982 5.56973 24.817C5.56973 25.4704 5.34942 25.9546 4.9088 26.2694C4.46818 26.5784 3.89244 26.7328 3.18158 26.7328H0.617188V20.2724ZM1.73636 22.9724H3.12871C3.8337 22.9724 4.18619 22.6635 4.18619 22.0457C4.18619 21.7665 4.08925 21.5526 3.89538 21.4041C3.70739 21.2556 3.45183 21.1813 3.12871 21.1813H1.73636V22.9724ZM1.73636 25.8239H3.22564C4.01875 25.8239 4.41531 25.4883 4.41531 24.817C4.41531 24.1635 3.99819 23.8368 3.16396 23.8368H1.73636V25.8239Z" fill="#373737"/>
<path d="M8.76854 23.017C8.5923 22.9991 8.42486 22.9902 8.26624 22.9902C7.91374 22.9902 7.65231 23.0823 7.48194 23.2665C7.31157 23.4447 7.22638 23.7625 7.22638 24.2199V26.7328H6.17771V21.9387H7.20876V22.7942C7.479 22.2298 7.90787 21.9417 8.49536 21.9298C8.57173 21.9298 8.66279 21.9358 8.76854 21.9476V23.017Z" fill="#373737"/>
<path d="M8.71223 25.414C8.71223 25.1823 8.76804 24.9774 8.87966 24.7991C8.99716 24.6209 9.14697 24.4754 9.32909 24.3625C9.51121 24.2437 9.74621 24.1427 10.0341 24.0595C10.3278 23.9764 10.6157 23.914 10.8977 23.8724C11.1797 23.8249 11.5146 23.7803 11.9023 23.7387V23.6496C11.9023 23.2694 11.8112 22.9962 11.6291 22.8298C11.447 22.6635 11.2091 22.5803 10.9153 22.5803C10.6392 22.5803 10.413 22.6546 10.2368 22.8031C10.0664 22.9516 9.97533 23.1655 9.96358 23.4447H8.93253C8.96778 22.9516 9.17047 22.5536 9.54059 22.2506C9.91071 21.9476 10.3807 21.7962 10.9506 21.7962C11.5674 21.7962 12.058 21.9595 12.4222 22.2863C12.7865 22.6071 12.9627 23.1298 12.951 23.8546C12.951 23.9199 12.948 24.1041 12.9422 24.4071C12.9363 24.7041 12.9333 24.9328 12.9333 25.0932C12.9333 25.7586 12.9803 26.3051 13.0743 26.7328H12.1138C12.0609 26.4298 12.0315 26.213 12.0257 26.0823C11.7319 26.5932 11.212 26.8487 10.4659 26.8487C9.94889 26.8487 9.5259 26.718 9.19691 26.4566C8.87379 26.1952 8.71223 25.8477 8.71223 25.414ZM11.9287 24.4783C11.1591 24.5496 10.6157 24.6536 10.2984 24.7902C9.9812 24.9209 9.82258 25.1199 9.82258 25.3873C9.82258 25.5952 9.90189 25.7586 10.0605 25.8774C10.2191 25.9962 10.4306 26.0556 10.695 26.0556C11.0886 26.0556 11.3912 25.9546 11.6027 25.7526C11.82 25.5447 11.9287 25.2417 11.9287 24.8437V24.4783Z" fill="#373737"/>
<path d="M14.7957 22.6071C15.0777 22.0902 15.5565 21.8318 16.2321 21.8318C17.3072 21.8318 17.8448 22.4615 17.8448 23.7209V26.7328H16.7961V23.9793C16.7961 23.8308 16.7902 23.7031 16.7785 23.5962C16.7667 23.4833 16.7432 23.3675 16.708 23.2486C16.6727 23.1298 16.6228 23.0348 16.5582 22.9635C16.4994 22.8863 16.4113 22.8239 16.2938 22.7764C16.1822 22.7229 16.05 22.6962 15.8973 22.6962C15.1629 22.6962 14.7957 23.1922 14.7957 24.1843V26.7328H13.747V21.9387H14.7957V22.6071Z" fill="#373737"/>
<path d="M21.818 20.2724H22.8666V26.7328H21.818V26.1001C21.5184 26.5992 21.0484 26.8487 20.408 26.8487C19.8323 26.8487 19.3446 26.617 18.9452 26.1536C18.5457 25.6902 18.3459 25.0843 18.3459 24.3358C18.3459 23.5873 18.5457 22.9843 18.9452 22.5269C19.3446 22.0635 19.8323 21.8318 20.408 21.8318C21.0484 21.8318 21.5184 22.0813 21.818 22.5803V20.2724ZM20.6371 22.6962C20.2846 22.6962 19.9968 22.8447 19.7735 23.1417C19.5503 23.4387 19.4386 23.8368 19.4386 24.3358C19.4386 24.8348 19.5503 25.2358 19.7735 25.5388C19.9968 25.8358 20.2846 25.9843 20.6371 25.9843C20.9955 25.9843 21.2892 25.8417 21.5184 25.5566C21.7475 25.2714 21.862 24.8645 21.862 24.3358C21.862 23.8071 21.7475 23.4031 21.5184 23.1239C21.2892 22.8387 20.9955 22.6962 20.6371 22.6962Z" fill="#373737"/>
<path d="M26.7249 25.7793H29.9414V26.7328H25.6057V20.2724H26.7249V25.7793Z" fill="#373737"/>
<path d="M33.9284 22.4823C34.3925 22.916 34.6245 23.5368 34.6245 24.3447C34.6245 25.1526 34.3925 25.7734 33.9284 26.2071C33.4701 26.6348 32.9237 26.8487 32.2893 26.8487C31.6548 26.8487 31.1055 26.6348 30.6413 26.2071C30.1831 25.7734 29.954 25.1526 29.954 24.3447C29.954 23.5368 30.1831 22.916 30.6413 22.4823C31.1055 22.0486 31.6548 21.8318 32.2893 21.8318C32.9237 21.8318 33.4701 22.0486 33.9284 22.4823ZM31.3992 25.5566C31.6401 25.8417 31.9368 25.9843 32.2893 25.9843C32.6418 25.9843 32.9384 25.8417 33.1793 25.5566C33.4202 25.2714 33.5406 24.8675 33.5406 24.3447C33.5406 23.816 33.4202 23.409 33.1793 23.1239C32.9384 22.8387 32.6418 22.6962 32.2893 22.6962C31.9368 22.6962 31.6401 22.8387 31.3992 23.1239C31.1583 23.409 31.0379 23.816 31.0379 24.3447C31.0379 24.8675 31.1583 25.2714 31.3992 25.5566Z" fill="#373737"/>
<path d="M38.4196 21.9387H39.4683V26.2516C39.4683 27.0239 39.2774 27.5883 38.8955 27.9447C38.5312 28.2893 37.9702 28.4615 37.2123 28.4615C36.6601 28.4615 36.2018 28.3398 35.8376 28.0962C35.4792 27.8586 35.2619 27.4902 35.1855 26.9912H36.2253C36.2723 27.217 36.3752 27.3774 36.5338 27.4724C36.6924 27.5734 36.9274 27.6239 37.2388 27.6239C37.6735 27.6239 37.9878 27.5081 38.1817 27.2764C38.3403 27.0922 38.4196 26.8219 38.4196 26.4655V25.9041C38.12 26.4031 37.65 26.6526 37.0096 26.6526C36.428 26.6526 35.9375 26.4328 35.538 25.9932C35.1444 25.5477 34.9476 24.9625 34.9476 24.2378C34.9476 23.513 35.1444 22.9308 35.538 22.4912C35.9375 22.0516 36.428 21.8318 37.0096 21.8318C37.65 21.8318 38.12 22.0813 38.4196 22.5803V21.9387ZM37.2388 22.6783C36.8863 22.6783 36.5984 22.8209 36.3752 23.1061C36.1519 23.3853 36.0403 23.7625 36.0403 24.2378C36.0403 24.7189 36.1519 25.1021 36.3752 25.3873C36.5984 25.6724 36.8863 25.815 37.2388 25.815C37.603 25.815 37.8968 25.6813 38.12 25.414C38.3491 25.1467 38.4637 24.7546 38.4637 24.2378C38.4637 23.7269 38.3491 23.3407 38.12 23.0793C37.8968 22.812 37.603 22.6783 37.2388 22.6783Z" fill="#373737"/>
<path d="M44.0364 22.4823C44.5005 22.916 44.7326 23.5368 44.7326 24.3447C44.7326 25.1526 44.5005 25.7734 44.0364 26.2071C43.5782 26.6348 43.0318 26.8487 42.3973 26.8487C41.7628 26.8487 41.2135 26.6348 40.7494 26.2071C40.2911 25.7734 40.062 25.1526 40.062 24.3447C40.062 23.5368 40.2911 22.916 40.7494 22.4823C41.2135 22.0486 41.7628 21.8318 42.3973 21.8318C43.0318 21.8318 43.5782 22.0486 44.0364 22.4823ZM41.5072 25.5566C41.7481 25.8417 42.0448 25.9843 42.3973 25.9843C42.7498 25.9843 43.0465 25.8417 43.2873 25.5566C43.5282 25.2714 43.6487 24.8675 43.6487 24.3447C43.6487 23.816 43.5282 23.409 43.2873 23.1239C43.0465 22.8387 42.7498 22.6962 42.3973 22.6962C42.0448 22.6962 41.7481 22.8387 41.5072 23.1239C41.2664 23.409 41.1459 23.816 41.1459 24.3447C41.1459 24.8675 41.2664 25.2714 41.5072 25.5566Z" fill="#373737"/>
</svg>
