<svg width="68" height="18" viewBox="0 0 68 18" fill="none" xmlns="http://www.w3.org/2000/svg">
<path d="M5.92122 10.9705C5.61653 10.9705 5.35968 10.8642 5.15066 10.6516C4.9415 10.4388 4.83691 10.1784 4.83691 9.87029C4.83691 9.56219 4.94212 9.30246 5.15253 9.0911C5.36295 8.87961 5.6205 8.77386 5.92518 8.77386C6.22987 8.77386 6.48672 8.88024 6.69574 9.09301C6.90476 9.30577 7.00927 9.5662 7.00927 9.8743C7.00927 10.1824 6.90414 10.4421 6.69386 10.6535C6.48345 10.8648 6.2259 10.9705 5.92122 10.9705ZM11.0597 10.9705C10.755 10.9705 10.4981 10.8642 10.2891 10.6516C10.08 10.4388 9.97538 10.1784 9.97538 9.87029C9.97538 9.56219 10.0806 9.30246 10.291 9.0911C10.5014 8.87961 10.759 8.77386 11.0636 8.77386C11.3683 8.77386 11.6252 8.88024 11.8342 9.09301C12.0432 9.30577 12.1477 9.5662 12.1477 9.8743C12.1477 10.1824 12.0426 10.4421 11.8323 10.6535C11.6219 10.8648 11.3644 10.9705 11.0597 10.9705ZM8.48543 15.9694C10.4082 15.9694 12.0378 15.2932 13.3741 13.9407C14.7104 12.5882 15.3785 10.9383 15.3785 8.9912C15.3785 8.64241 15.3529 8.2996 15.3018 7.96278C15.2509 7.62582 15.1789 7.30948 15.0861 7.01378C14.803 7.08419 14.5093 7.13467 14.2052 7.16522C13.9009 7.19564 13.5764 7.21085 13.2316 7.21085C11.9192 7.21085 10.6788 6.9345 9.51041 6.38182C8.34207 5.82913 7.34592 5.04474 6.52196 4.02864C6.06005 5.14331 5.40263 6.11604 4.5497 6.94682C3.69678 7.77761 2.711 8.41394 1.59237 8.85581V8.99542C1.59237 10.9423 2.26051 12.5913 3.59679 13.9426C4.93307 15.2938 6.56262 15.9694 8.48543 15.9694ZM8.48627 17.307C7.34982 17.307 6.28147 17.0887 5.28121 16.6521C4.28095 16.2155 3.41082 15.623 2.67082 14.8744C1.93097 14.1259 1.34575 13.2467 0.915181 12.237C0.484748 11.2272 0.269531 10.1482 0.269531 9.00007C0.269531 7.8509 0.485445 6.7706 0.917271 5.75915C1.34896 4.7477 1.93494 3.86784 2.67521 3.11956C3.41548 2.37143 4.28491 1.77967 5.2835 1.34428C6.28209 0.909031 7.34912 0.691406 8.4846 0.691406C9.62105 0.691406 10.6894 0.909735 11.6897 1.34639C12.6899 1.78291 13.5601 2.37544 14.3 3.124C15.0399 3.87255 15.6251 4.75171 16.0557 5.76147C16.4861 6.77123 16.7013 7.8502 16.7013 8.99838C16.7013 10.1475 16.4854 11.2278 16.0536 12.2393C15.6219 13.2508 15.0359 14.1306 14.2957 14.8789C13.5554 15.627 12.686 16.2188 11.6874 16.6542C10.6888 17.0894 9.62175 17.307 8.48627 17.307Z" fill="#373737"/>
<path d="M23.3278 5.7515H25.7336C27.2669 5.7515 28.0336 6.30101 28.0336 7.40003C28.0336 7.69112 27.9631 7.96439 27.8221 8.21984C27.687 8.47528 27.5196 8.66241 27.3198 8.78122C27.9602 9.07232 28.2804 9.57727 28.2804 10.2961C28.2804 10.9496 28.0601 11.4337 27.6194 11.7486C27.1788 12.0575 26.6031 12.2119 25.8922 12.2119H23.3278V5.7515ZM24.447 8.45152H25.8393C26.5443 8.45152 26.8968 8.14261 26.8968 7.52478C26.8968 7.24557 26.7999 7.03171 26.606 6.88319C26.418 6.73468 26.1625 6.66042 25.8393 6.66042H24.447V8.45152ZM24.447 11.303H25.9363C26.7294 11.303 27.1259 10.9674 27.1259 10.2961C27.1259 9.64262 26.7088 9.31588 25.8746 9.31588H24.447V11.303Z" fill="#373737"/>
<path d="M31.4792 8.49607C31.3029 8.47825 31.1355 8.46934 30.9769 8.46934C30.6244 8.46934 30.3629 8.56142 30.1926 8.74558C30.0222 8.9238 29.937 9.24162 29.937 9.69905V12.2119H28.8883V7.41785H29.9194V8.2733C30.1896 7.70894 30.6185 7.42082 31.206 7.40894C31.2824 7.40894 31.3734 7.41488 31.4792 7.42676V8.49607Z" fill="#373737"/>
<path d="M31.4229 10.8931C31.4229 10.6614 31.4787 10.4565 31.5903 10.2783C31.7078 10.1 31.8576 9.9545 32.0397 9.84163C32.2218 9.72281 32.4568 9.62182 32.7447 9.53865C33.0385 9.45548 33.3263 9.39311 33.6083 9.35152C33.8903 9.304 34.2252 9.25945 34.6129 9.21786V9.12875C34.6129 8.74855 34.5219 8.47528 34.3397 8.30894C34.1576 8.14261 33.9197 8.05944 33.6259 8.05944C33.3498 8.05944 33.1236 8.13369 32.9474 8.28221C32.777 8.43073 32.686 8.64459 32.6742 8.9238H31.6432C31.6784 8.43073 31.8811 8.0327 32.2512 7.72973C32.6213 7.42676 33.0913 7.27527 33.6612 7.27527C34.2781 7.27527 34.7686 7.43864 35.1329 7.76538C35.4971 8.08617 35.6734 8.60895 35.6616 9.3337C35.6616 9.39905 35.6587 9.58321 35.6528 9.88618C35.6469 10.1832 35.644 10.4119 35.644 10.5723C35.644 11.2377 35.691 11.7842 35.785 12.2119H34.8244C34.7716 11.909 34.7422 11.6921 34.7363 11.5614C34.4426 12.0723 33.9226 12.3278 33.1765 12.3278C32.6595 12.3278 32.2365 12.1971 31.9075 11.9357C31.5844 11.6743 31.4229 11.3268 31.4229 10.8931ZM34.6394 9.95747C33.8698 10.0288 33.3263 10.1327 33.0091 10.2693C32.6918 10.4 32.5332 10.5991 32.5332 10.8664C32.5332 11.0743 32.6125 11.2377 32.7712 11.3565C32.9298 11.4753 33.1413 11.5347 33.4056 11.5347C33.7993 11.5347 34.1018 11.4337 34.3133 11.2317C34.5307 11.0238 34.6394 10.7208 34.6394 10.3228V9.95747Z" fill="#373737"/>
<path d="M37.5063 8.08617C37.7883 7.56934 38.2671 7.31092 38.9428 7.31092C40.0179 7.31092 40.5554 7.94063 40.5554 9.20004V12.2119H39.5067V9.45846C39.5067 9.30994 39.5009 9.18221 39.4891 9.07528C39.4774 8.96241 39.4539 8.84657 39.4186 8.72776C39.3834 8.60895 39.3334 8.5139 39.2688 8.44261C39.2101 8.36538 39.1219 8.303 39.0044 8.25548C38.8928 8.20201 38.7606 8.17528 38.6079 8.17528C37.8735 8.17528 37.5063 8.67132 37.5063 9.66341V12.2119H36.4577V7.41785H37.5063V8.08617Z" fill="#373737"/>
<path d="M44.5286 5.7515H45.5773V12.2119H44.5286V11.5793C44.229 12.0783 43.759 12.3278 43.1186 12.3278C42.5429 12.3278 42.0553 12.0961 41.6558 11.6327C41.2563 11.1694 41.0565 10.5634 41.0565 9.81489C41.0565 9.06637 41.2563 8.4634 41.6558 8.00597C42.0553 7.5426 42.5429 7.31092 43.1186 7.31092C43.759 7.31092 44.229 7.56043 44.5286 8.05944V5.7515ZM43.3478 8.17528C42.9953 8.17528 42.7074 8.3238 42.4842 8.62083C42.2609 8.91786 42.1493 9.31588 42.1493 9.81489C42.1493 10.3139 42.2609 10.7149 42.4842 11.0179C42.7074 11.3149 42.9953 11.4634 43.3478 11.4634C43.7061 11.4634 43.9999 11.3208 44.229 11.0357C44.4581 10.7505 44.5727 10.3436 44.5727 9.81489C44.5727 9.28618 44.4581 8.88221 44.229 8.603C43.9999 8.31785 43.7061 8.17528 43.3478 8.17528Z" fill="#373737"/>
<path d="M49.4355 11.2585H52.652V12.2119H48.3163V5.7515H49.4355V11.2585Z" fill="#373737"/>
<path d="M56.639 7.96142C57.1031 8.39508 57.3352 9.01588 57.3352 9.8238C57.3352 10.6317 57.1031 11.2525 56.639 11.6862C56.1807 12.1139 55.6344 12.3278 54.9999 12.3278C54.3654 12.3278 53.8161 12.1139 53.352 11.6862C52.8937 11.2525 52.6646 10.6317 52.6646 9.8238C52.6646 9.01588 52.8937 8.39508 53.352 7.96142C53.8161 7.52775 54.3654 7.31092 54.9999 7.31092C55.6344 7.31092 56.1807 7.52775 56.639 7.96142ZM54.1098 11.0357C54.3507 11.3208 54.6474 11.4634 54.9999 11.4634C55.3524 11.4634 55.6491 11.3208 55.8899 11.0357C56.1308 10.7505 56.2512 10.3466 56.2512 9.8238C56.2512 9.29509 56.1308 8.88815 55.8899 8.603C55.6491 8.31785 55.3524 8.17528 54.9999 8.17528C54.6474 8.17528 54.3507 8.31785 54.1098 8.603C53.869 8.88815 53.7485 9.29509 53.7485 9.8238C53.7485 10.3466 53.869 10.7505 54.1098 11.0357Z" fill="#373737"/>
<path d="M61.1303 7.41785H62.1789V11.7307C62.1789 12.503 61.988 13.0674 61.6061 13.4238C61.2419 13.7684 60.6808 13.9407 59.923 13.9407C59.3707 13.9407 58.9125 13.8189 58.5482 13.5753C58.1899 13.3377 57.9725 12.9694 57.8961 12.4704H58.936C58.983 12.6961 59.0858 12.8565 59.2444 12.9515C59.403 13.0525 59.638 13.103 59.9494 13.103C60.3841 13.103 60.6984 12.9872 60.8923 12.7555C61.0509 12.5713 61.1303 12.301 61.1303 11.9446V11.3832C60.8306 11.8822 60.3606 12.1317 59.7203 12.1317C59.1387 12.1317 58.6481 11.9119 58.2486 11.4723C57.855 11.0268 57.6582 10.4416 57.6582 9.71688C57.6582 8.99212 57.855 8.40993 58.2486 7.97033C58.6481 7.53072 59.1387 7.31092 59.7203 7.31092C60.3606 7.31092 60.8306 7.56043 61.1303 8.05944V7.41785ZM59.9494 8.15746C59.5969 8.15746 59.309 8.30003 59.0858 8.58518C58.8625 8.86439 58.7509 9.24162 58.7509 9.71688C58.7509 10.1981 58.8625 10.5812 59.0858 10.8664C59.309 11.1515 59.5969 11.2941 59.9494 11.2941C60.3136 11.2941 60.6074 11.1604 60.8306 10.8931C61.0598 10.6258 61.1743 10.2337 61.1743 9.71688C61.1743 9.20598 61.0598 8.81984 60.8306 8.55845C60.6074 8.29112 60.3136 8.15746 59.9494 8.15746Z" fill="#373737"/>
<path d="M66.747 7.96142C67.2112 8.39508 67.4432 9.01588 67.4432 9.8238C67.4432 10.6317 67.2112 11.2525 66.747 11.6862C66.2888 12.1139 65.7424 12.3278 65.1079 12.3278C64.4734 12.3278 63.9241 12.1139 63.46 11.6862C63.0018 11.2525 62.7727 10.6317 62.7727 9.8238C62.7727 9.01588 63.0018 8.39508 63.46 7.96142C63.9241 7.52775 64.4734 7.31092 65.1079 7.31092C65.7424 7.31092 66.2888 7.52775 66.747 7.96142ZM64.2179 11.0357C64.4588 11.3208 64.7554 11.4634 65.1079 11.4634C65.4604 11.4634 65.7571 11.3208 65.998 11.0357C66.2389 10.7505 66.3593 10.3466 66.3593 9.8238C66.3593 9.29509 66.2389 8.88815 65.998 8.603C65.7571 8.31785 65.4604 8.17528 65.1079 8.17528C64.7554 8.17528 64.4588 8.31785 64.2179 8.603C63.977 8.88815 63.8566 9.29509 63.8566 9.8238C63.8566 10.3466 63.977 10.7505 64.2179 11.0357Z" fill="#373737"/>
</svg>
