<svg width="164" height="31" viewBox="0 0 164 31" fill="none" xmlns="http://www.w3.org/2000/svg">
<path d="M54.205 30.2943L48.2412 21.7198L44.6025 25.6311V30.2943H38.6387V0H44.6025V17.6172L53.2905 8.06001H60.8385L52.3308 17.2875L61.8883 30.2877H54.1985L54.205 30.2943Z" fill="#373737"/>
<path d="M69.8098 10.6255C71.8127 8.6732 74.376 7.69043 77.4995 7.69043V13.4683C74.1635 13.653 71.5938 14.7743 69.8098 16.8255V30.2941H63.8461V8.06639H69.8098V10.6255Z" fill="#373737"/>
<path d="M100.794 18.4094C100.794 19.4977 100.749 20.3485 100.652 20.9685H84.7254C85.2728 23.9828 87.1019 25.4932 90.2319 25.4932C91.8677 25.4932 93.0205 25.0711 93.6903 24.2334H100.292C99.5575 26.3177 98.2952 27.9402 96.4919 29.1011C94.6886 30.2685 92.5826 30.8489 90.1932 30.8489C86.7606 30.8489 83.9783 29.7474 81.8402 27.5379C79.702 25.3349 78.6329 22.5515 78.6329 19.2009C78.6329 15.8502 79.6762 13.0536 81.7693 10.8374C83.8624 8.61468 86.548 7.50659 89.8262 7.50659C93.1043 7.50659 95.674 8.50915 97.722 10.5143C99.77 12.5128 100.794 15.1511 100.794 18.416V18.4094ZM89.8712 12.6777C87.1727 12.6777 85.4983 14.0562 84.8671 16.8264H94.7401C94.4374 14.0562 92.8145 12.6777 89.8712 12.6777Z" fill="#373737"/>
<path d="M120.36 8.06649H126.317V30.2942H120.36V29.041C118.537 30.248 116.463 30.8548 114.125 30.8548C111.124 30.8548 108.567 29.7203 106.462 27.4514C104.356 25.1825 103.299 22.432 103.299 19.2067C103.299 15.9814 104.356 13.2178 106.462 10.9356C108.574 8.65352 111.131 7.51245 114.125 7.51245C116.463 7.51245 118.544 8.11926 120.36 9.32628V8.07309V8.06649ZM115.034 25.3078C117.397 25.3078 119.175 24.4371 120.36 22.7025V15.6648C119.175 13.9235 117.404 13.0529 115.034 13.0529C113.359 13.0529 111.981 13.6531 110.892 14.8469C109.804 16.0408 109.257 17.4984 109.257 19.2067C109.257 20.915 109.804 22.3199 110.892 23.5137C111.987 24.7076 113.366 25.3078 115.034 25.3078Z" fill="#373737"/>
<path d="M146.482 24.3251L147.3 29.8721C145.664 30.5185 143.919 30.8483 142.071 30.8483C139.192 30.8483 136.951 29.9975 135.36 28.309C133.769 26.6138 132.97 24.3251 132.97 21.4362V13.1849H128.333V8.06001H132.97V0H138.934V8.0666H146.894V13.1915H138.934V21.4428C138.934 22.6828 139.282 23.626 139.978 24.2592C140.68 24.899 141.6 25.2155 142.753 25.2155C143.842 25.2155 145.085 24.9187 146.482 24.3317V24.3251Z" fill="#373737"/>
<path d="M156.31 10.6255C158.313 8.6732 160.876 7.69043 164 7.69043V13.4683C160.664 13.653 158.094 14.7743 156.31 16.8255V30.2941H150.347V8.06639H156.31V10.6255Z" fill="#373737"/>
<path d="M26.6256 18.1779C24.9897 18.1779 23.6695 16.8191 23.6695 15.1504V3.02745C23.663 1.35872 24.9897 0 26.6256 0C28.2614 0 29.5817 1.35872 29.5817 3.02745V15.1438C29.5817 16.8191 28.255 18.1713 26.6256 18.1713V18.1779Z" fill="#373737"/>
<path d="M11.8312 15.1441C11.8312 13.4688 13.1579 12.1167 14.7873 12.1167C16.4231 12.1167 17.7434 13.4754 17.7434 15.1441C17.7434 16.8129 16.4167 18.1716 14.7873 18.1716C13.1514 18.1716 11.8312 16.8129 11.8312 15.1441Z" fill="#373737"/>
<path d="M17.7498 24.2324V27.2599C17.7498 28.9352 16.4231 30.2873 14.7937 30.2873C14.388 30.2873 13.9951 30.2016 13.6409 30.0499C12.5783 29.5882 11.8312 28.5131 11.8312 27.2599V24.2324H17.7498Z" fill="#373737"/>
<path d="M25.4727 24.4699C25.8269 24.3182 26.2134 24.2324 26.6255 24.2324C27.4435 24.2324 28.1841 24.5688 28.7186 25.1228C29.2532 25.6769 29.5881 26.4288 29.5881 27.2665V30.2939H23.6694V27.2665C23.6694 26.0133 24.4165 24.9316 25.4792 24.4765L25.4727 24.4699Z" fill="#373737"/>
<path d="M13.6409 0.237447C13.9951 0.0857448 14.3815 0 14.7873 0C15.6052 0 16.3458 0.336383 16.8804 0.890426C17.4149 1.43787 17.7498 2.19638 17.7498 3.03404V6.06149H11.8312V3.03404C11.8312 1.78085 12.5783 0.699149 13.6409 0.244043V0.237447Z" fill="#373737"/>
<path d="M5.91865 0V3.02745C5.91865 4.70277 4.59195 6.0549 2.96255 6.0549C2.14463 6.0549 1.40399 5.71851 0.869443 5.16447C0.328456 4.62362 0 3.86511 0 3.02745V0H5.91865Z" fill="#373737"/>
<path d="M2.95611 12.1167C4.59195 12.1167 5.91221 13.4754 5.91221 15.1441V24.2331V27.2605C5.91221 28.9359 4.58551 30.288 2.95611 30.288C1.32027 30.288 0 28.9293 0 27.2605V24.2331V15.1441C0 13.4688 1.32671 12.1167 2.95611 12.1167Z" fill="#373737"/>
</svg>
