<?xml version="1.0" encoding="utf-8"?>
<!-- Generator: Adobe Illustrator 28.3.0, SVG Export Plug-In . SVG Version: 6.00 Build 0)  -->
<svg version="1.1" id="Layer_1" xmlns="http://www.w3.org/2000/svg" xmlns:xlink="http://www.w3.org/1999/xlink" x="0px" y="0px"
	 viewBox="0 0 182 182" style="enable-background:new 0 0 182 182;" xml:space="preserve">
<style type="text/css">
	.st0{fill:#373737;}
</style>
<g id="XMLID_5_">
	<path id="XMLID_77_" class="st0" d="M10.81,82.36c2.6-2.29,3.86-5.97,3.86-11.12c0-5.59-1.34-10.86-3.94-15.76
		c-2.36-4.38-5.43-7.05-9.29-8.07h5.12c8.98,0,16.3,1.84,21.89,5.59c5.59,3.75,8.35,8.39,8.35,13.91c0,5.53-1.65,9.72-4.96,12.64
		s-7.72,5.02-13.15,6.23v0.44c2.2,0.06,4.72,0.64,7.48,1.72c2.76,1.08,5.43,2.67,8.03,4.64c2.6,2.03,4.8,4.51,6.54,7.5
		c1.73,2.99,2.6,6.48,2.6,10.42c0,7.12-3.07,13.09-9.21,17.85c-6.22,4.83-14.25,7.24-24.09,7.24H7.66
		c9.05-1.52,13.54-7.75,13.54-18.68c0-7.56-1.5-14.29-4.49-20.2c-3.39-6.61-8.35-10.29-14.96-10.86
		C5.46,85.6,8.45,84.46,10.81,82.36z"/>
	<path id="XMLID_73_" class="st0" d="M43.33,135.6v-1.02c2.35,0,4.38-1.46,6.04-4.38c1.72-2.99,2.54-6.61,2.54-10.93V63.81
		c0-4.32-0.83-8.01-2.54-10.93c-1.65-2.99-3.68-4.45-6.04-4.45v-1.02l23.95-2.03h1.02v73.89c0,4.32,0.83,7.94,2.48,10.93
		c1.72,2.92,3.68,4.38,6.04,4.38v1.02H43.33z"/>
	<path id="XMLID_69_" class="st0" d="M86.59,134.14c-3.18-1.65-5.59-3.88-7.24-6.67c-1.65-2.8-2.48-5.91-2.48-9.28
		c0-4.57,1.02-8.32,2.99-11.31s4.64-5.15,8.01-6.61c3.37-1.4,7.24-2.1,11.5-2.1c4.19,0,7.69,0.51,10.42,1.46l0.76,0.32
		c-1.4-0.32-2.99-0.51-4.83-0.51c-7.31,1.27-11.12,7.18-11.44,17.73c0,4.51,1.14,8.26,3.37,11.25c2.22,2.99,4.89,5.21,8.01,6.73
		c0.57,0.19,1.14,0.32,1.72,0.32c0.57,0,0.95,0,1.21-0.06c-2.41,0.83-5.85,1.21-10.29,1.21C93.64,136.62,89.77,135.79,86.59,134.14z
		 M88.05,95.64L75.03,83.63c3.75-4.13,7.75-7.12,12.13-9.09c3.49-1.59,7.5-2.48,12.01-2.8c-2.8,0.95-5.15,4-7.12,9.02
		c-1.97,4.38-3.3,9.34-3.88,14.87H88.05z"/>
	<path id="XMLID_31_" class="st0" d="M129.73,126.77c0,0.95,0.32,2.54,1.02,4.64c0.64,2.1,2.22,3.18,4.83,3.18v1.02h-25.03v-1.02
		c2.6,0,5.91-1.52,9.91-4.64c4-3.05,7.24-5.85,9.78-8.45C129.92,122.58,129.73,124.35,129.73,126.77z M172.93,130.07
		c3.11,2.99,5.65,4.51,7.62,4.51v1.02h-37.93v-1.02c2.48,0,4-1.78,4.57-5.27c0.13-0.7,0.19-1.46,0.19-2.22
		c0-2.99-0.95-6.16-2.8-9.66l-15.31-26.68c-2.54-4.32-5.53-8.26-9.02-11.82c-3.49-3.56-6.23-5.34-8.2-5.34v-1.02h37.99v1.02
		c-3.37,0-5.02,2.35-5.02,6.99c0,3.11,1.02,6.48,3.05,10.17l16.33,28.46C166.9,123.47,169.75,127.09,172.93,130.07z M162.83,79.37
		c0-0.32-0.06-1.33-0.19-3.11c-0.19-1.78-1.52-2.67-4.13-2.67v-1.02h21.03v1.02c-2.48,0-5.65,1.78-9.53,5.27
		c-3.88,3.56-6.86,6.54-9.02,9.02C162.19,85.35,162.83,82.49,162.83,79.37z"/>
</g>
</svg>
