<?xml version="1.0" encoding="utf-8"?>
<!-- Generator: Adobe Illustrator 28.3.0, SVG Export Plug-In . SVG Version: 6.00 Build 0)  -->
<svg version="1.1" id="Layer_1" xmlns="http://www.w3.org/2000/svg" xmlns:xlink="http://www.w3.org/1999/xlink" x="0px" y="0px"
	 viewBox="0 0 182 182" style="enable-background:new 0 0 182 182;" xml:space="preserve">
<style type="text/css">
	.st0{fill:#373737;}
	.st1{fill:none;}
</style>
<g>
	<g>
		<g>
			<path class="st0" d="M2.07,113.75v-6.19h29.44v6.19H20.53v29.76h-7.48v-29.76H2.07z"/>
			<path class="st0" d="M32.22,125.34h-6.9c0.16-2.72,1.24-4.95,3.22-6.68c1.98-1.73,5.01-2.59,9.08-2.59
				c1.76,0,3.36,0.18,4.79,0.55c1.43,0.37,2.5,0.84,3.2,1.42c0.7,0.58,1.24,1.32,1.61,2.21c0.52,1.17,0.78,2.63,0.78,4.38L48,138.25
				c0,1.58,0.14,2.63,0.42,3.13c0.28,0.52,0.68,0.86,1.2,1.03v1.1h-7.65c-0.42-1.01-0.64-2.05-0.66-3.11
				c-1.42,1.48-2.74,2.51-3.96,3.07s-2.68,0.84-4.38,0.84c-1.74,0-3.26-0.33-4.55-1c-1.29-0.67-2.25-1.64-2.89-2.91
				c-0.64-1.27-0.95-2.64-0.95-4.11c0-2.22,0.58-4.08,1.75-5.58c1.17-1.5,3.31-2.49,6.44-2.96l5.87-0.88
				c0.95-0.13,1.59-0.37,1.94-0.72c0.35-0.35,0.53-0.83,0.53-1.43c0-0.96-0.32-1.71-0.97-2.25c-0.64-0.54-1.72-0.81-3.24-0.81
				c-1.57,0-2.68,0.27-3.34,0.81C32.9,123.02,32.45,123.97,32.22,125.34z M41.1,130.5c-0.6,0.31-1.19,0.56-1.75,0.75
				c-0.56,0.19-1.32,0.38-2.26,0.57c-1.79,0.34-2.92,0.6-3.37,0.78c-0.75,0.31-1.31,0.73-1.69,1.27c-0.38,0.54-0.56,1.2-0.56,1.98
				c0,1.06,0.33,1.92,0.98,2.57c0.65,0.65,1.5,0.98,2.54,0.98c1.53,0,2.93-0.5,4.21-1.49c1.27-0.99,1.91-2.57,1.91-4.72V130.5z"/>
			<path class="st0" d="M55.26,121.85h-3.72v-4.99h3.72v-7.19h6.95v7.19h4.3v4.99h-4.3v14.31c0,0.83,0.06,1.38,0.17,1.65
				c0.11,0.27,0.34,0.47,0.68,0.6c0.34,0.13,1.04,0.2,2.1,0.2c0.37,0,0.82-0.02,1.35-0.07v5.21c-1.45,0.1-2.57,0.15-3.35,0.15
				c-2.25,0-3.88-0.19-4.89-0.56c-1.01-0.37-1.76-0.94-2.26-1.7c-0.5-0.76-0.75-1.81-0.75-3.14V121.85z"/>
			<path class="st0" d="M71.94,121.85h-3.72v-4.99h3.72v-7.19h6.95v7.19h4.3v4.99h-4.3v14.31c0,0.83,0.06,1.38,0.17,1.65
				c0.11,0.27,0.34,0.47,0.68,0.6c0.34,0.13,1.04,0.2,2.1,0.2c0.37,0,0.82-0.02,1.35-0.07v5.21c-1.45,0.1-2.57,0.15-3.35,0.15
				c-2.25,0-3.88-0.19-4.89-0.56c-1.01-0.37-1.76-0.94-2.26-1.7c-0.5-0.76-0.75-1.81-0.75-3.14V121.85z"/>
			<path class="st0" d="M85.05,116.86h7.83l5.58,19.64l5.67-19.64h7.48l-9.64,26.66h-7.36L85.05,116.86z"/>
			<path class="st0" d="M119.84,125.34h-6.9c0.16-2.72,1.24-4.95,3.22-6.68c1.98-1.73,5.01-2.59,9.08-2.59
				c1.76,0,3.36,0.18,4.79,0.55c1.43,0.37,2.5,0.84,3.2,1.42c0.7,0.58,1.24,1.32,1.61,2.21c0.52,1.17,0.78,2.63,0.78,4.38
				l-0.02,13.62c0,1.58,0.14,2.63,0.42,3.13c0.28,0.52,0.68,0.86,1.2,1.03v1.1h-7.65c-0.42-1.01-0.64-2.05-0.66-3.11
				c-1.42,1.48-2.74,2.51-3.96,3.07s-2.68,0.84-4.38,0.84c-1.74,0-3.26-0.33-4.55-1c-1.29-0.67-2.25-1.64-2.89-2.91
				c-0.64-1.27-0.95-2.64-0.95-4.11c0-2.22,0.58-4.08,1.75-5.58c1.17-1.5,3.31-2.49,6.44-2.96l5.87-0.88
				c0.95-0.13,1.59-0.37,1.94-0.72c0.35-0.35,0.53-0.83,0.53-1.43c0-0.96-0.32-1.71-0.97-2.25c-0.64-0.54-1.72-0.81-3.24-0.81
				c-1.57,0-2.68,0.27-3.34,0.81C120.52,123.02,120.07,123.97,119.84,125.34z M128.72,130.5c-0.6,0.31-1.19,0.56-1.75,0.75
				c-0.56,0.19-1.32,0.38-2.26,0.57c-1.79,0.34-2.92,0.6-3.37,0.78c-0.75,0.31-1.31,0.73-1.69,1.27c-0.38,0.54-0.56,1.2-0.56,1.98
				c0,1.06,0.33,1.92,0.98,2.57c0.65,0.65,1.5,0.98,2.54,0.98c1.53,0,2.93-0.5,4.21-1.49c1.27-0.99,1.91-2.57,1.91-4.72V130.5z"/>
			<path class="st0" d="M179.93,143.51h-6.95v-16.87c0-1.6-0.35-2.77-1.05-3.52c-0.7-0.75-1.68-1.12-2.93-1.12
				c-1.39,0-2.51,0.46-3.36,1.38c-0.86,0.92-1.28,2.31-1.28,4.17v15.97h-6.95v-15.97c0-1.39-0.12-2.44-0.35-3.17
				c-0.24-0.73-0.68-1.3-1.32-1.74c-0.64-0.43-1.44-0.65-2.38-0.65c-1.65,0-2.88,0.6-3.69,1.81c-0.55,0.82-0.83,2.06-0.83,3.74
				v15.97h-6.95v-26.66h6.73v3.94c0.8-1.47,1.7-2.55,2.71-3.25c1.42-0.98,3.1-1.47,5.04-1.47c1.19,0,2.25,0.18,3.19,0.55
				c0.94,0.37,1.72,0.87,2.36,1.5c0.49,0.47,1.06,1.25,1.71,2.32c0.86-1.42,1.92-2.5,3.18-3.25c1.26-0.75,2.76-1.12,4.5-1.12
				c1.66,0,3.06,0.3,4.21,0.9c1.14,0.6,2.04,1.34,2.7,2.21c0.66,0.87,1.11,1.85,1.36,2.92c0.24,1.08,0.37,2.58,0.37,4.52V143.51z"/>
		</g>
	</g>
	<path class="st1" d="M98.59,62.68c0.62,0.06,1.36,0.88,1.36,0.88s-0.34,0.45-1.22,0.37c-0.88-0.09-1.82-1.28-1.82-1.28
		S97.97,62.62,98.59,62.68z"/>
	<path class="st1" d="M121.93,76.82c0,0,0,0-0.3,1.51c-0.3,1.51,1.15,2.42,1.15,2.42s0.45-0.8,0.4-1.83
		C123.13,77.9,121.93,76.82,121.93,76.82z"/>
	<path class="st1" d="M92.46,43.6c-3.55,0-6.93,0.71-10.02,1.99c0.09-0.03,0.16-0.05,0.23-0.06c10.42-2.06,19.88,0.04,28.31,6.28
		c0.51,0.38,0.99,0.74,1.45,1.09C107.65,47.22,100.48,43.6,92.46,43.6z"/>
	<path class="st1" d="M83.14,77.3c0.51-0.62,1.02-0.96,2.61-1.42c1.59-0.45,3.4-1.76,3.4-1.76l2.72,0.45l0.68,0.06
		c0,0,1.47,0.17,1.87,0.23c0.4,0.06,0.68,0.96,0.68,0.96s1.08-0.11,1.87-0.57c0.79-0.45,1.02-1.36,2.1-1.3
		c1.08,0.06,3.83,0.85,4.42,0.62c0.6-0.23,1.42-0.96,1.42-0.96s-0.09-0.2-0.37-0.37c-0.28-0.17-1.25-0.43-1.25-0.43
		s0.54-0.23,1.16-0.2c0.62,0.03,1.22,0.34,1.56,0.4c0.34,0.06,2.07-2.92,2.24-3.52c0.17-0.6-1.45-1.56-1.45-1.56l-4.71-4.37
		c0,0,0.23-1.25-1.19-3.52c-1.42-2.27-5.39-5.84-5.39-5.84s-0.17-4.2-2.21-4.42c-2.04-0.23-3.29,2.44-3.29,2.44
		s-0.06-0.11-1.13-0.11c-1.08,0-9.3-1.3-10.49-1.98c-0.65-0.37-1.49-0.55-2.41-0.67c-5.86,4.78-9.61,12.06-9.61,20.22
		c0,7.78,3.41,14.76,8.81,19.54c0.62-0.98,1.34-2.14,2.13-3.39C79.06,83.1,81.12,79.94,83.14,77.3z M98.59,62.61
		c0.62,0.06,1.36,0.88,1.36,0.88s-0.34,0.45-1.22,0.37c-0.88-0.09-1.82-1.28-1.82-1.28S97.97,62.55,98.59,62.61z"/>
	<path class="st1" d="M122.78,80.69c0,0,0.45-0.8,0.4-1.83c0-0.04-0.01-0.09-0.02-0.13c-0.18,0.61-0.38,1.21-0.59,1.8
		C122.7,80.63,122.78,80.69,122.78,80.69z"/>
	<path class="st0" d="M92.46,37.68c-17.67,0-32,14.33-32,32c0,10.48,5.04,19.79,12.83,25.63l-0.08-0.19l1.17-4.45l0.07-0.28
		c0.22-0.35,0.47-0.73,0.74-1.15c-5.4-4.78-8.81-11.76-8.81-19.54c0-8.16,3.75-15.44,9.61-20.22c1.94-1.58,4.11-2.89,6.46-3.87
		c3.08-1.28,6.47-1.99,10.02-1.99c8.01,0,15.18,3.62,19.97,9.3c0.36,0.28,0.72,0.55,1.06,0.82c5.61,4.37,7.65,6.81,8.89,8.31
		c0.58,0.7,0.99,1.2,1.51,1.6C121.07,48.85,108.07,37.68,92.46,37.68z"/>
	<g>
		<path class="st0" d="M127.2,78.75c-0.69-0.9-0.97-2.37-0.97-2.37s2.09,2.51,4.8,3.27c2.72,0.77,9.95,0.42,9.95,0.42
			s-2.51,0-5.5-1.46c-0.4-0.2-0.77-0.4-1.1-0.6v0c-5.54-2.32-6.75-8.85-6.75-8.85s0.17,0.56,0.77,1.39
			c0.59,0.84,1.53,1.43,1.53,1.43s0.52-0.49,0.35-1.81c-0.17-1.32-2.54-4.18-3.24-4.32c-0.7-0.14-2.84-2-2.84-2
			c-0.11-0.07-0.21-0.15-0.32-0.22c-0.52-0.4-0.93-0.9-1.51-1.6c-1.24-1.5-3.28-3.94-8.89-8.31c-0.34-0.27-0.69-0.54-1.06-0.82
			c-0.46-0.35-0.94-0.71-1.45-1.09c-8.43-6.24-17.89-8.34-28.31-6.28c-0.06,0.02-0.14,0.04-0.23,0.06
			c-2.34,0.98-4.52,2.28-6.46,3.87c0.92,0.12,1.76,0.3,2.41,0.67c1.19,0.68,9.41,1.98,10.49,1.98c1.08,0,1.13,0.11,1.13,0.11
			s1.25-2.67,3.29-2.44c2.04,0.23,2.21,4.42,2.21,4.42s3.97,3.57,5.39,5.84c1.42,2.27,1.19,3.52,1.19,3.52l4.71,4.37
			c0,0,1.62,0.96,1.45,1.56c-0.17,0.6-1.9,3.57-2.24,3.52c-0.34-0.06-0.94-0.37-1.56-0.4c-0.62-0.03-1.16,0.2-1.16,0.2
			s0.96,0.26,1.25,0.43c0.28,0.17,0.37,0.37,0.37,0.37s-0.82,0.74-1.42,0.96c-0.59,0.23-3.35-0.57-4.42-0.62
			c-1.08-0.06-1.3,0.85-2.1,1.3c-0.79,0.45-1.87,0.57-1.87,0.57s-0.28-0.91-0.68-0.96c-0.4-0.06-1.87-0.23-1.87-0.23l-0.68-0.06
			l-2.72-0.45c0,0-1.81,1.3-3.4,1.76c-1.59,0.45-2.1,0.79-2.61,1.42c-2.02,2.64-4.08,5.8-5.82,8.54c-0.79,1.25-1.51,2.41-2.13,3.39
			c-0.27,0.42-0.51,0.81-0.74,1.15l-0.07,0.28l-1.17,4.45l0.08,0.19l2.48,6.29l-0.52,3.51l0.36,0.54c0.02,0.06,0.05,0.1,0.08,0.12v0
			c0.03,0.02,0.06,0.03,0.09,0.03c0.62,0,8.88,0,8.88,0l-0.58-2.77l-1.09-2.77l-1.78-4.51l0.52-1.02l0.53-1.04l2.03-4.01l1.62-3.2
			c0.16-0.08,0.34-0.09,0.56-0.06c1.02,0.16,2.05,0.3,3.08,0.42c0.42,0.05,0.85,0.04,1.28,0.03c0.96-0.02,1.93-0.08,2.85-0.37
			c0.2-0.06,0.39-0.08,0.58-0.06l2.51,1.31l-1.57,3.23l-0.07,0.14l-1.37,0.46l-0.45-0.27l-0.69-0.18l-1.69-0.45l-0.11,0.37
			l-1.41,4.54l-0.3,0.97l-0.33,1.07l2.31,0.84l1.92-1.07l5.76-1.06l0.15-0.27l0.73-1.31l3.36-6l1.53-2.73l-2.38-3.1l3.62-2.14
			l3.15,2.12l1.01,1.01l0.91,0.9c0,0,0.12,1.49,0.14,3.24c0,0.1,0,0.21,0,0.31c0,0.48,0.31,1,0.77,1.5
			c0.93,1.01,2.46,1.97,3.33,2.47c0.38,0.22,0.64,0.35,0.64,0.35l2.44-0.28c0,0,0.28-0.77,0.9-2.65c0.63-1.88,3.83-4.77,6.06-5.95
			c2.23-1.18,3.41-3.62,3.41-3.62S127.9,79.66,127.2,78.75z M122.78,80.69c0,0-0.08-0.05-0.2-0.15c-0.39-0.32-1.17-1.11-0.94-2.27
			c0.3-1.51,0.3-1.51,0.3-1.51s1.1,0.99,1.24,1.98c0.01,0.04,0.01,0.09,0.02,0.13C123.24,79.88,122.78,80.69,122.78,80.69z"/>
		<path class="st0" d="M129.47,80.84c1.83,2.76,8.11,2.69,10.34,2.23c-1.93-0.23-3.84-0.51-5.44-1.68
			C132.64,81.59,131.07,81.34,129.47,80.84z"/>
	</g>
	<path class="st0" d="M98.74,63.86c0.88,0.08,1.22-0.37,1.22-0.37s-0.74-0.82-1.36-0.88c-0.62-0.06-1.67-0.03-1.67-0.03
		S97.86,63.77,98.74,63.86z"/>
</g>
</svg>
